<?xml version="1.0" encoding="utf-8"?>
<svg version="1.1" xmlns="http://www.w3.org/2000/svg" viewBox="0 0 32 32" role="img" aria-label="Purr Verify MCP">
  <defs>
    <style type="text/css">
      .pad { fill: #f59e0b; }
      .bean { fill: #f59e0b; }
      .frame { fill: none; stroke: #f59e0b; stroke-width: 1.5; stroke-miterlimit: 10; }
    </style>
  </defs>
  <rect class="frame" x="1.25" y="1.25" width="29.5" height="29.5" rx="7" />
  <!-- Main pad -->
  <path class="pad" d="M16 17.2c-2.6 0-4.9 1.5-6.1 3.7-0.7 1.3-0.5 2.8 0.5 3.7 0.9 0.8 2.2 0.9 3.3 0.4 0.7-0.3 1.5-0.5 2.3-0.5s1.6 0.2 2.3 0.5c1.1 0.5 2.4 0.4 3.3-0.4 1-0.9 1.2-2.4 0.5-3.7-1.2-2.2-3.5-3.7-6.1-3.7z" />
  <!-- Toe beans -->
  <ellipse class="bean" cx="9.6" cy="14.6" rx="2.05" ry="2.6" />
  <ellipse class="bean" cx="13.3" cy="12.2" rx="2.05" ry="2.7" />
  <ellipse class="bean" cx="18.7" cy="12.2" rx="2.05" ry="2.7" />
  <ellipse class="bean" cx="22.4" cy="14.6" rx="2.05" ry="2.6" />
</svg>
